<svg width="34" height="34" viewBox="0 0 34 34" fill="none" xmlns="http://www.w3.org/2000/svg">
<path d="M29.2428 21.9817C29.076 21.5279 28.7582 21.2851 28.3966 21.084C28.3285 21.0441 28.266 21.0122 28.2126 20.9877C28.1047 20.9319 27.9944 20.8779 27.8846 20.8209C26.7571 20.223 25.8764 19.4688 25.2657 18.5748C25.0922 18.3231 24.9418 18.0563 24.8162 17.7776C24.7641 17.6286 24.7667 17.544 24.8039 17.4667C24.841 17.4072 24.8901 17.356 24.948 17.3165C25.1418 17.1884 25.3417 17.0584 25.4772 16.9707C25.7187 16.8143 25.9101 16.6904 26.0333 16.6028C26.4963 16.279 26.82 15.9352 27.0223 15.5505C27.1635 15.2849 27.2459 14.992 27.2638 14.6917C27.2818 14.3914 27.2348 14.0908 27.1262 13.8103C26.8196 13.0033 26.0574 12.5023 25.1339 12.5023C24.9391 12.5022 24.7449 12.5227 24.5544 12.5636C24.5036 12.5747 24.4526 12.5863 24.403 12.5993C24.4116 12.0474 24.3993 11.4648 24.3503 10.8915C24.1761 8.87594 23.4703 7.8194 22.7345 6.97689C22.2633 6.44892 21.7084 6.00225 21.0919 5.65485C19.975 5.01712 18.7088 4.69336 17.3286 4.69336C15.9484 4.69336 14.6879 5.01712 13.5703 5.65485C12.9523 6.00236 12.3961 6.44992 11.9245 6.97931C11.1886 7.82187 10.4829 8.88024 10.3087 10.894C10.2597 11.4673 10.2474 12.0529 10.2554 12.6017C10.2059 12.5888 10.1554 12.577 10.1045 12.5661C9.91409 12.5252 9.71985 12.5046 9.52508 12.5048C8.60097 12.5048 7.83754 13.0058 7.53217 13.8128C7.42303 14.0934 7.37558 14.3942 7.39304 14.6948C7.41049 14.9954 7.49246 15.2887 7.63335 15.5548C7.83635 15.9393 8.16011 16.2833 8.62308 16.6071C8.74572 16.6929 8.93764 16.8167 9.17921 16.975C9.30981 17.0596 9.50065 17.1835 9.68758 17.3073C9.75302 17.3496 9.80866 17.4055 9.85077 17.471C9.89003 17.5513 9.89122 17.6378 9.83296 17.7974C9.70907 18.0702 9.56112 18.3315 9.39087 18.578C8.79364 19.4518 7.93881 20.1925 6.84737 20.7855C6.26898 21.0919 5.66789 21.2968 5.41416 21.9866C5.22288 22.5073 5.34794 23.0996 5.8342 23.5987C6.01266 23.7851 6.21965 23.9418 6.4474 24.063C6.92126 24.3234 7.42514 24.525 7.94786 24.6632C8.05575 24.6911 8.15817 24.7369 8.25081 24.7988C8.42799 24.9539 8.40287 25.1875 8.63895 25.5297C8.75744 25.7065 8.90802 25.8596 9.08288 25.981C9.57834 26.3232 10.1351 26.3447 10.725 26.3673C11.2579 26.3876 11.8619 26.4109 12.5517 26.6383C12.8375 26.7328 13.1343 26.9155 13.4782 27.1289C14.3042 27.6365 15.435 28.3313 17.3273 28.3313C19.2196 28.3313 20.3583 27.6329 21.1903 27.1233C21.5319 26.9136 21.8269 26.7326 22.1047 26.6407C22.7945 26.4126 23.3985 26.3899 23.9314 26.3697C24.5212 26.347 25.078 26.3255 25.5734 25.9834C25.7805 25.839 25.9531 25.6505 26.0787 25.4315C26.2486 25.1427 26.2443 24.941 26.4037 24.7999C26.4906 24.741 26.5868 24.697 26.6882 24.6699C27.2181 24.5312 27.7289 24.3277 28.209 24.0641C28.4509 23.9343 28.6687 23.7638 28.8528 23.56L28.8589 23.5527C29.3152 23.0647 29.4298 22.4894 29.2428 21.9817ZM27.5608 22.8855C26.5349 23.4521 25.8531 23.3914 25.3227 23.733C24.872 24.023 25.1387 24.6485 24.8112 24.8741C24.409 25.1519 23.22 24.8543 21.684 25.3616C20.4171 25.7804 19.6089 26.9847 17.3303 26.9847C15.0518 26.9847 14.2626 25.783 12.9748 25.3585C11.4418 24.8514 10.2504 25.1488 9.84755 24.871C9.52073 24.6454 9.78623 24.0199 9.33617 23.7299C8.80511 23.3883 8.12327 23.4491 7.09799 22.8855C6.44493 22.525 6.81532 22.302 7.03301 22.1963C10.749 20.3972 11.3419 17.6194 11.3682 17.4134C11.4001 17.1638 11.4357 16.9676 11.161 16.7137C10.8955 16.4685 9.71754 15.7395 9.39062 15.5113C8.84976 15.1336 8.61185 14.7564 8.78731 14.2929C8.90995 13.9722 9.20918 13.8514 9.5231 13.8514C9.62234 13.8517 9.72125 13.8628 9.81808 13.8845C10.4115 14.0131 10.9881 14.3106 11.321 14.391C11.3611 14.4013 11.4023 14.4068 11.4437 14.4076C11.6217 14.4076 11.684 14.318 11.6717 14.1145C11.6337 13.4651 11.5418 12.1994 11.6441 11.0166C11.7846 9.3892 12.3089 8.58284 12.9319 7.86969C13.2311 7.52689 14.6371 6.04117 17.326 6.04117C20.0148 6.04117 21.4245 7.52076 21.7238 7.86232C22.3474 8.57547 22.8723 9.38183 23.0115 11.0092C23.1139 12.1921 23.0256 13.4583 22.9839 14.1071C22.9698 14.3211 23.0342 14.4002 23.212 14.4002C23.2534 14.3995 23.2946 14.3939 23.3347 14.3836C23.6682 14.3033 24.2446 14.0059 24.838 13.8771C24.9348 13.8554 25.0337 13.8443 25.1329 13.844C25.4487 13.844 25.7461 13.9666 25.8688 14.2855C26.0441 14.7491 25.8075 15.1262 25.266 15.5039C24.9392 15.732 23.7612 16.4605 23.4956 16.7064C23.2203 16.9603 23.2565 17.1564 23.2884 17.4061C23.3147 17.6151 23.9071 20.3929 27.6236 22.1889C27.8435 22.2987 28.2139 22.5219 27.5608 22.8855Z" fill="#222222"/>
</svg>
